<svg width="194" height="194" viewBox="0 0 194 194" fill="none" xmlns="http://www.w3.org/2000/svg">
<rect x="0.923737" y="1.00479" width="191.739" height="191.739" fill="white" stroke="#7A7A7A" stroke-width="0.812318"/>
<line x1="87.2129" y1="83.9748" x2="106.383" y2="83.9748" stroke="#7A7A7A" stroke-width="1.62464"/>
<line x1="96.4025" y1="93.9551" x2="96.4025" y2="74.7851" stroke="#7A7A7A" stroke-width="1.62464"/>
<path d="M64.8179 111.928V124.2H63.1862V118.037H61.9994V123.606H60.4216V112.13H61.9994V116.661H63.1862V111.928H64.8179ZM59.127 113.344V114.733H56.2815V119.965C57.4682 119.958 58.5201 119.898 59.7068 119.682L59.8282 121.084C58.3313 121.368 57.0232 121.408 55.4049 121.422H54.5553V113.344H59.127ZM77.3732 121.462V122.838H66.1395V121.462H68.9311V119.129H67.0701V117.74H68.7153V114.288H67.0161V112.912H76.4292V114.288H74.703V117.74H76.3752V119.129H74.5277V121.462H77.3732ZM70.4415 117.74H73.0038V114.288H70.4415V117.74ZM70.6573 121.462H72.8015V119.129H70.6573V121.462ZM88.3506 111.928V124.227H86.6109V111.928H88.3506ZM81.6886 112.791C83.5362 112.791 84.9117 114.49 84.9117 117.16C84.9117 119.857 83.5362 121.543 81.6886 121.543C79.8006 121.543 78.4251 119.857 78.4386 117.16C78.4251 114.49 79.8006 112.791 81.6886 112.791ZM81.6886 114.342C80.7311 114.342 80.0973 115.34 80.0973 117.16C80.0973 118.994 80.7311 119.979 81.6886 119.979C82.6191 119.979 83.253 118.994 83.253 117.16C83.253 115.34 82.6191 114.342 81.6886 114.342ZM96.5499 113.033V121.273H90.6162V113.033H96.5499ZM92.3424 114.382V119.911H94.8777V114.382H92.3424ZM100.285 111.928V124.227H98.5458V111.928H100.285ZM106.705 115.272C106.705 117.255 107.716 119.372 109.779 120.235L108.849 121.583C107.399 120.97 106.401 119.749 105.855 118.252C105.295 119.877 104.277 121.226 102.834 121.894L101.85 120.532C103.886 119.628 104.938 117.349 104.938 115.272V114.517H102.335V113.114H109.267V114.517H106.705V115.272ZM112.22 111.928V124.2H110.481V111.928H112.22ZM128.255 119.277V120.68H123.494V124.213H121.795V120.68H117.062V119.277H128.255ZM127.23 113.344V114.692H123.548C123.744 115.771 125.126 116.985 127.662 117.268L127.041 118.617C124.964 118.381 123.461 117.531 122.658 116.405C121.863 117.544 120.346 118.381 118.249 118.617L117.628 117.268C120.163 116.985 121.559 115.778 121.768 114.692H118.073V113.344H121.795V111.941H123.494V113.344H127.23ZM138.679 111.928V116.634H140.419V118.05H138.679V124.173H136.953V111.928H138.679ZM135.402 113.182C135.389 116.85 133.959 120.033 129.833 122.055L128.862 120.734C131.768 119.277 133.326 117.322 133.649 114.584H129.563V113.182H135.402Z" fill="#7A7A7A"/>
</svg>
