<svg width="31" height="31" viewBox="0 0 31 31" fill="none" xmlns="http://www.w3.org/2000/svg">
<path d="M7.24865 19.4071L7.85932 19.5597L7.24865 19.4071L6.41331 22.7484C6.41052 22.7596 6.40771 22.7708 6.40489 22.7821C6.35549 22.9793 6.30273 23.19 6.28542 23.3669C6.26636 23.5617 6.2708 23.8904 6.53444 24.154C6.79807 24.4176 7.12672 24.4221 7.32152 24.403C7.49843 24.3857 7.70909 24.333 7.90634 24.2836C7.9176 24.2807 7.92881 24.2779 7.93997 24.2751L7.93999 24.2751L7.9674 24.2683L7.96742 24.2683L11.2814 23.4398L11.2814 23.4398C11.2841 23.4391 11.2869 23.4384 11.2897 23.4377C11.3059 23.4337 11.322 23.4296 11.3381 23.4257C11.6185 23.3559 11.8667 23.2941 12.0921 23.1665C12.3174 23.0389 12.4981 22.8578 12.7022 22.6533C12.7159 22.6396 12.7296 22.6258 12.7435 22.6119L21.8004 13.555L21.8297 13.5257C22.2243 13.1312 22.5643 12.7912 22.7999 12.4824C23.0525 12.1514 23.2437 11.7832 23.2437 11.3295C23.2437 10.8758 23.0525 10.5077 22.7999 10.1767C22.5643 9.86784 22.2243 9.52789 21.8297 9.13333L21.8004 9.10404L21.5844 8.88804L21.5551 8.85873C21.1605 8.46414 20.8206 8.12414 20.5117 7.8885C20.1807 7.63595 19.8126 7.44473 19.3589 7.44473C18.9052 7.44473 18.537 7.63595 18.206 7.8885C17.8972 8.12414 17.5572 8.46414 17.1627 8.85874L17.1334 8.88804L8.07651 17.9449C8.06264 17.9588 8.04886 17.9725 8.03518 17.9862C7.83064 18.1903 7.64957 18.371 7.52195 18.5964C7.39434 18.8218 7.33256 19.07 7.26278 19.3504C7.25811 19.3691 7.25341 19.388 7.24865 19.4071Z" stroke="#222222" stroke-width="1.25894"/>
<path d="M16.2109 9.4417L19.9877 6.92383L23.7646 10.7006L21.2467 14.4774L16.2109 9.4417Z" fill="#222222"/>
</svg>
