<svg width="173" height="63" viewBox="0 0 173 63" fill="none" xmlns="http://www.w3.org/2000/svg">
<rect x="0.39994" y="0.39994" width="171.34" height="61.5767" rx="23.777" fill="white"/>
<rect x="0.39994" y="0.39994" width="171.34" height="61.5767" rx="23.777" stroke="#B9B9B9" stroke-width="0.79988"/>
<path d="M82.4102 20.635V26.9861H85.5504V28.5444H82.4102V34.7067H80.545V20.635H82.4102ZM65.9302 32.5582C67.6066 32.5582 69.5662 32.5582 71.6203 32.4873V30.9527C69.1766 30.7402 67.6066 29.5951 67.6066 27.8597C67.6066 25.9473 69.5662 24.7668 72.5175 24.7668C75.4924 24.7668 77.4284 25.9473 77.4521 27.8597C77.4284 29.5833 75.8938 30.7284 73.4619 30.9527V32.4165C75.4216 32.3221 77.4048 32.1686 79.2464 31.8971L79.4117 33.2429C74.8549 34.0456 69.8259 34.0692 66.1427 34.0692L65.9302 32.5582ZM82.4102 35.7456V41.6009H80.545V37.233H68.5037V35.7456H82.4102ZM78.609 22.5474V23.964H66.4497V22.5474H71.6203V20.4461H73.4619V22.5474H78.609ZM72.5175 26.0889C70.5815 26.0653 69.3773 26.75 69.3773 27.8597C69.3773 28.9458 70.5815 29.7013 72.5175 29.6777C74.4535 29.7013 75.6813 28.9458 75.6813 27.8597C75.6813 26.75 74.4535 26.0653 72.5175 26.0889ZM104.25 20.635V35.9817H102.408V20.635H104.25ZM104.911 39.594V41.1523H90.6974V34.4234H92.5391V39.594H104.911ZM92.9168 22.0988C96.057 22.0988 98.418 24.2237 98.418 27.2458C98.418 30.3152 96.057 32.4165 92.9168 32.4165C89.7766 32.4165 87.4156 30.3152 87.4156 27.2458C87.4156 24.2237 89.7766 22.0988 92.9168 22.0988ZM92.9168 23.7279C90.7919 23.7279 89.21 25.1917 89.2336 27.2458C89.21 29.3472 90.7919 30.7874 92.9168 30.7874C94.9945 30.7874 96.6 29.3472 96.6 27.2458C96.6 25.1917 94.9945 23.7279 92.9168 23.7279Z" fill="#0096FF"/>
</svg>
