<svg width="16" height="16" viewBox="0 0 16 16" fill="none" xmlns="http://www.w3.org/2000/svg">
<path d="M15.6649 13.4615L12.7388 10.5354C12.6068 10.4033 12.4277 10.33 12.2399 10.33H11.7615C12.5716 9.29395 13.0529 7.99087 13.0529 6.57331C13.0529 3.20113 10.3205 0.46875 6.94831 0.46875C3.57613 0.46875 0.84375 3.20113 0.84375 6.57331C0.84375 9.9455 3.57613 12.6779 6.94831 12.6779C8.36586 12.6779 9.66895 12.1966 10.705 11.3865V11.8649C10.705 12.0527 10.7783 12.2318 10.9104 12.3638L13.8365 15.2899C14.1124 15.5658 14.5585 15.5658 14.8314 15.2899L15.662 14.4594C15.9379 14.1835 15.9379 13.7374 15.6649 13.4615ZM6.94831 10.33C4.87335 10.33 3.19166 8.65121 3.19166 6.57331C3.19166 4.49835 4.87041 2.81666 6.94831 2.81666C9.02328 2.81666 10.705 4.49541 10.705 6.57331C10.705 8.64828 9.02621 10.33 6.94831 10.33Z" fill="black" fill-opacity="0.5"/>
</svg>
