<svg width="16" height="16" viewBox="0 0 16 16" fill="none" xmlns="http://www.w3.org/2000/svg">
<g clip-path="url(#clip0_142_6610)">
<path d="M13.148 6.57353C13.148 11.1751 7.51348 15.1193 7.51348 15.1193C7.51348 15.1193 1.87891 11.1751 1.87891 6.57353C1.87891 5.00443 2.47255 3.49959 3.52923 2.39007C4.58592 1.28055 6.0191 0.657227 7.51348 0.657227C9.00786 0.657227 10.441 1.28055 11.4977 2.39007C12.5544 3.49959 13.148 5.00443 13.148 6.57353Z" stroke="black" stroke-opacity="0.5" stroke-width="1.12692" stroke-linecap="round" stroke-linejoin="round"/>
<path d="M7.51086 8.54448C8.54807 8.54448 9.3889 7.66161 9.3889 6.57253C9.3889 5.48346 8.54807 4.60059 7.51086 4.60059C6.47364 4.60059 5.63281 5.48346 5.63281 6.57253C5.63281 7.66161 6.47364 8.54448 7.51086 8.54448Z" stroke="black" stroke-opacity="0.5" stroke-width="1.12692" stroke-linecap="round" stroke-linejoin="round"/>
</g>
<defs>
<clipPath id="clip0_142_6610">
<rect width="15.0255" height="15.7768" fill="white"/>
</clipPath>
</defs>
</svg>
