<svg width="1204" height="476" viewBox="0 0 1204 476" fill="none" xmlns="http://www.w3.org/2000/svg">
<rect x="820" width="384" height="475.013" fill="#D9D9D9"/>
<path d="M237.78 23.337C237.718 33.5143 243.052 43.6917 252.065 47.5542L248.018 53.0107C241.642 50.0679 236.952 44.1822 234.407 36.9477C231.863 44.7646 227.112 51.1408 220.368 54.2982L216.199 48.5964C225.456 44.6113 230.852 34.0048 230.852 23.337V14.5084H237.78V23.337ZM262.916 10.0328V65.5178H256.05V10.0328H262.916ZM314.784 10.0328V25.9733H322.509V31.675H314.784V50.0066H307.856V10.0328H314.784ZM299.702 14.2632C299.702 28.9774 290.138 39.4613 273.707 44.2435L270.887 38.8483C283.547 35.2003 291.088 28.303 292.284 19.8423H273.216V14.2632H299.702ZM316.869 58.8351V64.353H279.163V45.8988H286.091V58.8351H316.869ZM336.12 55.647L330.97 72.8137H325.145L328.334 55.647H336.12ZM376.094 20.0263C376.094 26.8316 380.508 33.2078 389.152 35.8441L385.903 41.178C379.68 39.2468 375.266 35.2923 372.844 30.2649C370.392 36.0893 365.702 40.7182 359.05 42.956L355.616 37.5608C364.567 34.6179 369.227 27.4447 369.227 20.0876V19.4132H357.517V13.8953H387.62V19.4132H376.094V20.0263ZM399.943 10.0328V23.337H407.668V28.9161H399.943V43.0786H393.138V10.0328H399.943ZM381.918 44.3048C393.383 44.3048 400.433 48.1673 400.495 54.7887C400.433 61.4714 393.383 65.3952 381.918 65.3952C370.33 65.3952 363.157 61.4714 363.157 54.7887C363.157 48.1673 370.33 44.3048 381.918 44.3048ZM381.918 49.6387C374.316 49.6387 369.963 51.4167 369.963 54.7887C369.963 58.222 374.316 60.0613 381.918 60.0613C389.52 60.0613 393.751 58.222 393.751 54.7887C393.751 51.4167 389.52 49.6387 381.918 49.6387ZM461.13 53.072V58.5899H410.488V53.072H432.192V40.2584H438.936V53.072H461.13ZM439.12 17.4513C439.12 25.8507 447.519 34.1274 459.168 35.9667L456.225 41.6072C446.845 39.8292 439.181 34.4646 435.502 27.1995C431.824 34.434 424.221 39.8905 414.902 41.6072L411.96 35.9667C423.547 34.1274 431.824 25.7893 431.885 17.4513V13.4048H439.12V17.4513ZM475.537 55.647L470.387 72.8137H464.563L467.751 55.647H475.537ZM515.266 18.8614C515.266 25.8507 519.803 32.4108 528.325 35.1084L524.646 40.4423C518.669 38.4191 514.377 34.3727 512.017 29.2227C509.564 35.1084 505.089 39.7372 498.712 41.975L495.034 36.6411C503.985 33.5143 508.399 26.1572 508.461 18.2483V12.9757H515.266V18.8614ZM539.361 10.0328V23.5209H547.086V29.1614H539.361V43.2012H532.555V10.0328H539.361ZM521.336 44.4274C532.8 44.3661 539.851 48.2899 539.912 54.85C539.851 61.5327 532.8 65.3952 521.336 65.3952C509.748 65.3952 502.575 61.5327 502.575 54.85C502.575 48.2899 509.748 44.3661 521.336 44.4274ZM521.336 49.7613C513.733 49.7613 509.38 51.6006 509.38 54.85C509.38 58.2833 513.733 60 521.336 60C528.938 60 533.168 58.2833 533.168 54.85C533.168 51.6006 528.938 49.7613 521.336 49.7613ZM593.803 10.0941V26.1572H601.283V31.7364H593.803V47.5542H586.998V10.0941H593.803ZM575.472 48.0447C587.243 48.0447 594.049 51.1714 594.11 56.8119C594.049 62.4524 587.243 65.4565 575.472 65.4565C563.516 65.4565 556.772 62.4524 556.772 56.8119C556.772 51.1714 563.516 48.0447 575.472 48.0447ZM575.472 53.072C567.502 53.0107 563.578 54.2982 563.578 56.8119C563.578 59.1417 567.502 60.4292 575.472 60.4292C583.319 60.4292 587.182 59.1417 587.243 56.8119C587.182 54.2982 583.319 53.0107 575.472 53.072ZM549.415 40.4423C553.615 40.4423 558.397 40.4423 563.394 40.2584V36.6411C557.171 35.9361 553.339 33.1158 553.339 28.9161C553.339 24.0114 558.55 21.0072 566.705 21.0072C574.859 21.0072 580.07 24.0114 580.07 28.9161C580.07 33.0852 576.33 35.8747 570.199 36.5798V40.0131C574.92 39.7985 579.671 39.4 584.116 38.7869L584.668 43.5078C572.835 45.531 559.96 45.7149 550.151 45.7149L549.415 40.4423ZM582.645 14.3245V19.3519H550.825V14.3245H563.394V9.60366H570.199V14.3245H582.645ZM566.705 25.5441C562.413 25.5441 559.838 26.8316 559.899 28.9161C559.838 31.1233 562.413 32.3495 566.705 32.3495C570.996 32.3495 573.571 31.1233 573.571 28.9161C573.571 26.8316 570.996 25.5441 566.705 25.5441ZM651.986 10.0328V65.4565H645.426V10.0328H651.986ZM640.582 11.0138V62.7589H634.084V36.3959H628.811C628.167 47.1863 623.538 53.8691 616.672 53.8077C609.437 53.8691 604.716 46.2054 604.716 34.0048C604.716 21.8042 609.437 14.2632 616.672 14.2632C623.385 14.2632 627.953 20.5167 628.75 30.878H634.084V11.0138H640.582ZM616.672 20.7007C613.177 20.6394 610.97 25.3602 611.031 34.0048C610.97 42.6494 613.177 47.3703 616.672 47.309C620.35 47.3703 622.557 42.6494 622.557 34.0048C622.557 25.3602 620.35 20.6394 616.672 20.7007ZM701.463 13.7114V37.806H675.222V13.7114H701.463ZM681.905 19.1679V32.3495H694.78V19.1679H681.905ZM717.035 10.0328V22.4786H724.76V28.1191H717.035V41.3006H710.23V10.0328H717.035ZM717.832 44.1209V49.5161H703.118C704.191 54.2369 710.475 58.6818 720.162 60.0613L717.71 65.2726C709.065 64.0464 702.474 60.3372 699.317 55.3405C696.098 60.3372 689.63 64.0158 680.985 65.15L678.472 60C688.25 58.6818 694.381 54.3595 695.516 49.5161H680.74V44.1209H717.832ZM775.402 10.0328V65.4565H768.903V10.0328H775.402ZM763.63 11.3816V62.8202H757.193V37.3155H747.322C744.073 43.6917 738.861 49.2095 731.014 53.7464L727.151 48.903C738.647 42.1283 743.889 33.453 744.931 22.2947H729.972V16.7769H751.675C751.675 22.1414 751.031 27.1688 749.529 31.859H757.193V11.3816H763.63Z" fill="#0094FF"/>
<path d="M420.052 102.033V157.457H413.554V102.033H420.052ZM408.281 103.382V154.82H401.844V129.316H391.973C388.723 135.692 383.512 141.21 375.664 145.746L371.802 140.903C383.297 134.128 388.539 125.453 389.582 114.295H374.622V108.777H396.326C396.326 114.141 395.682 119.169 394.18 123.859H401.844V103.382H408.281ZM447.458 115.337C447.396 125.514 452.73 135.692 461.743 139.554L457.696 145.011C451.32 142.068 446.63 136.182 444.086 128.948C441.541 136.765 436.79 143.141 430.046 146.298L425.877 140.596C435.135 136.611 440.53 126.005 440.53 115.337V106.508H447.458V115.337ZM472.595 102.033V157.518H465.728V102.033H472.595ZM531.268 124.533V129.929H509.319V134.098H524.953V147.708H493.44V151.755H526.486V156.966H486.757V142.804H518.27V139.248H486.696V134.098H502.514V129.929H480.749V124.533H531.268ZM524.769 103.749V121.039H487.125V103.749H524.769ZM493.808 109.083V115.705H517.964V109.083H493.808ZM569.77 117.789C569.77 126.373 574.859 136.121 583.626 140.167L579.825 145.563C573.571 142.62 568.942 136.673 566.459 129.745C563.946 137.347 559.102 143.846 552.726 146.911L548.741 141.577C557.569 137.408 562.903 126.986 562.965 117.789V113.13H550.887V107.489H581.357V113.13H569.77V117.789ZM593.313 102.033V123.614H601.835V129.316H593.313V157.457H586.507V102.033H593.313ZM654.745 128.58V134.036H604.165V128.58H626.113V123.307H610.357V104.547H648.614V109.88H617.162V117.912H648.92V123.307H632.796V128.58H654.745ZM629.363 137.224C641.318 137.224 648.491 140.842 648.553 147.34C648.491 153.778 641.318 157.457 629.363 157.457C617.285 157.457 610.05 153.778 610.05 147.34C610.05 140.842 617.285 137.224 629.363 137.224ZM629.363 142.436C621.27 142.436 616.917 144.152 616.978 147.34C616.917 150.529 621.27 152.184 629.363 152.184C637.272 152.184 641.686 150.529 641.747 147.34C641.686 144.152 637.272 142.436 629.363 142.436ZM721.388 102.033V157.457H714.889V129.377H709.188V154.759H702.75V103.014H709.188V123.736H714.889V102.033H721.388ZM690.55 116.195C690.55 126.066 693.86 135.14 702.076 139.37L698.091 144.582C692.818 141.761 689.354 136.887 687.423 130.848C685.522 137.746 682.058 143.294 676.571 146.543L672.402 141.332C680.617 136.673 683.928 126.986 683.928 116.195V113.559H674.057V108.102H699.623V113.559H690.55V116.195ZM744.87 112.333C744.87 118.341 748.364 124.349 755.66 127.108L752.043 132.32C747.107 130.419 743.674 126.894 741.682 122.571C739.658 127.538 736.041 131.768 730.769 133.975L727.09 128.764C734.692 125.392 738.248 118.464 738.31 112.333V105.466H744.87V112.333ZM774.973 102.094V136.06H768.474V121.652H762.956V134.343H756.58V103.136H762.956V116.073H768.474V102.094H774.973ZM756.273 136.979C767.861 136.979 775.218 140.78 775.279 147.157C775.218 153.533 767.861 157.395 756.273 157.395C744.563 157.395 737.267 153.533 737.267 147.157C737.267 140.78 744.563 136.979 756.273 136.979ZM756.273 142.129C748.61 142.129 744.073 143.907 744.073 147.157C744.073 150.467 748.61 152.184 756.273 152.184C763.876 152.184 768.413 150.467 768.413 147.157C768.413 143.907 763.876 142.129 756.273 142.129Z" fill="black"/>
<path opacity="0.5" d="M14.8344 200.904C14.8063 208.127 12.361 214.732 3.367 219.145L2.13032 217.459C6.83813 215.182 9.66281 212.287 11.1805 208.914L2.60813 209.729L2.24275 207.79L11.8551 207.144C12.2907 205.738 12.5437 204.263 12.6421 202.731H3.50753V200.904H14.8344ZM21.2145 198.29V208.465H25.2618V210.32H21.2145V223.277H19.0222V198.29H21.2145ZM37.0383 201.354V203.124H29.8431V208.071H35.886V209.842H29.8431V215.463C33.4267 215.421 35.619 215.294 38.3312 214.789L38.528 216.587C35.633 217.178 33.2721 217.234 29.3091 217.262H27.7352V201.354H37.0383ZM48.1403 198.29V223.277H46.0042V198.29H48.1403ZM43.025 198.908V221.984H40.917V209.617H37.2351V207.79H40.917V198.908H43.025ZM71.6653 200.82V203.321C71.6372 206.385 71.6372 209.814 70.7378 214.845L68.4893 214.592C69.4449 209.814 69.4449 206.3 69.4449 203.321V202.647H54.0426V200.82H71.6653ZM74.3916 217.908V219.735H51.6255V217.908H60.5633V208.971H62.7275V217.908H74.3916ZM97.1296 198.29V223.333H94.9373V198.29H97.1296ZM89.5409 200.623V209.505H80.2096V215.407C84.3553 215.407 88.0513 215.224 92.5202 214.507L92.745 216.362C88.1356 217.093 84.3412 217.262 80.041 217.262H77.9611V207.706H87.3205V202.45H77.9049V200.623H89.5409ZM108.906 199.92C112.757 199.948 115.539 202.309 115.567 205.794C115.539 208.928 113.291 211.163 110.03 211.556V215.828C112.363 215.716 114.71 215.547 116.888 215.266L117.029 216.925C111.745 217.824 105.814 217.88 101.43 217.852L101.064 215.997C103.074 215.983 105.407 215.969 107.81 215.885V211.556C104.493 211.177 102.217 208.942 102.245 205.794C102.217 202.309 104.999 199.948 108.906 199.92ZM108.906 201.832C106.292 201.832 104.381 203.462 104.409 205.794C104.381 208.127 106.292 209.757 108.906 209.757C111.492 209.757 113.375 208.127 113.403 205.794C113.375 203.462 111.492 201.832 108.906 201.832ZM120.683 198.29V208.605H124.758V210.516H120.683V223.277H118.49V198.29H120.683ZM156.35 218.189V220.016H133.471V218.189H143.702V212.062H145.866V218.189H156.35ZM145.922 201.916C145.922 206.104 150.869 209.757 155.225 210.516L154.242 212.343C150.433 211.57 146.414 208.985 144.798 205.373C143.154 208.971 139.163 211.57 135.354 212.343L134.37 210.516C138.727 209.757 143.617 206.104 143.617 201.916V200.005H145.922V201.916ZM181.224 218.217V220.072H158.345V218.217H164.023V211.472C161.886 210.362 160.594 208.563 160.594 206.3C160.594 202.422 164.388 199.892 169.728 199.864C175.068 199.892 178.863 202.422 178.863 206.3C178.863 208.521 177.612 210.306 175.546 211.416V218.217H181.224ZM169.728 201.691C165.625 201.663 162.73 203.518 162.73 206.3C162.73 209.083 165.625 210.966 169.728 210.966C173.804 210.966 176.727 209.083 176.727 206.3C176.727 203.518 173.804 201.663 169.728 201.691ZM166.187 218.217H173.326V212.259C172.244 212.554 171.035 212.709 169.728 212.709C168.449 212.709 167.255 212.568 166.187 212.287V218.217ZM192.101 205.008C192.073 209.561 195.192 214.17 198.874 215.828L197.525 217.571C194.687 216.18 192.227 213.243 191.033 209.673C189.866 213.453 187.407 216.601 184.484 218.077L183.079 216.222C186.789 214.507 189.88 209.757 189.908 205.008V200.454H192.101V205.008ZM203.821 198.29V223.333H201.601V198.29H203.821ZM227.627 198.29V205.907H231.393V207.762H227.627V216.587H225.407V198.29H227.627ZM220.882 200.229C220.882 206.666 216.272 211.444 209.077 213.692L208.121 211.922C214.108 210.053 218.015 206.483 218.493 202.084H209.161V200.229H220.882ZM228.779 220.888V222.743H211.972V214.732H214.164V220.888H228.779ZM244.35 198.74C249.915 198.74 253.176 200.258 253.176 203.04C253.176 205.879 249.915 207.397 244.35 207.425C238.785 207.397 235.497 205.879 235.497 203.04C235.497 200.258 238.785 198.74 244.35 198.74ZM244.35 200.398C240.191 200.398 237.773 201.41 237.802 203.04C237.773 204.783 240.191 205.738 244.35 205.738C248.482 205.738 250.927 204.783 250.927 203.04C250.927 201.41 248.482 200.398 244.35 200.398ZM255.733 209.111V210.91H232.967V209.111H255.733ZM252.81 213.074V218.667H237.97V221.253H253.569V222.996H235.778V217.037H250.646V214.76H235.722V213.074H252.81ZM285.695 198.29V211.697H283.502V198.29H285.695ZM271.698 212.962V215.997H283.502V212.962H285.695V222.939H269.505V212.962H271.698ZM271.698 221.141H283.502V217.768H271.698V221.141ZM272.204 199.527C275.998 199.499 278.752 201.832 278.752 205.26C278.752 208.661 275.998 210.994 272.204 210.994C268.409 210.994 265.655 208.661 265.655 205.26C265.655 201.832 268.409 199.499 272.204 199.527ZM272.204 201.382C269.646 201.354 267.791 202.984 267.819 205.26C267.791 207.537 269.646 209.167 272.204 209.167C274.733 209.167 276.588 207.537 276.588 205.26C276.588 202.984 274.733 201.354 272.204 201.382ZM301.8 199.836V206.834H293.199V210.713C297.893 210.713 300.31 210.643 303.261 210.095L303.486 211.922C300.366 212.428 297.837 212.512 292.777 212.512H291.007V205.148H299.607V201.607H290.951V199.836H301.8ZM310.653 198.318V213.664H308.433V209.027H303.458V207.2H308.433V203.827H303.458V202.028H308.433V198.318H310.653ZM310.653 215.013V223.333H308.433V216.812H293.817V215.013H310.653ZM334.15 198.29V208.605H338.338V210.432H334.15V223.277H331.958V198.29H334.15ZM329.541 202.309V204.136H314.672V202.309H321.109V198.599H323.301V202.309H329.541ZM322.233 206.216C325.774 206.216 328.332 208.577 328.36 211.95C328.332 215.323 325.774 217.683 322.233 217.683C318.663 217.683 316.078 215.323 316.106 211.95C316.078 208.577 318.663 206.216 322.233 206.216ZM322.233 208.071C319.9 208.071 318.186 209.701 318.214 211.95C318.186 214.226 319.9 215.828 322.233 215.8C324.538 215.828 326.224 214.226 326.252 211.95C326.224 209.701 324.538 208.071 322.233 208.071ZM348.568 205.008C348.54 209.561 351.66 214.17 355.342 215.828L353.993 217.571C351.154 216.18 348.695 213.243 347.5 209.673C346.334 213.453 343.875 216.601 340.952 218.077L339.546 216.222C343.256 214.507 346.348 209.757 346.376 205.008V200.454H348.568V205.008ZM360.289 198.29V223.333H358.068V198.29H360.289ZM377.209 200.482V202.703H383.055V198.318H385.275V216.559H383.055V209.898H377.209V212.147H365.741V200.482H377.209ZM367.934 202.309V210.376H375.045V202.309H367.934ZM385.837 220.888V222.743H369.114V214.929H371.335V220.888H385.837ZM377.209 208.071H383.055V204.558H377.209V208.071ZM416.698 200.82V203.321C416.67 206.385 416.67 209.814 415.771 214.845L413.522 214.592C414.478 209.814 414.478 206.3 414.478 203.321V202.647H399.075V200.82H416.698ZM419.424 217.908V219.735H396.658V217.908H405.596V208.971H407.76V217.908H419.424ZM434.574 200.482V212.062H422.853V200.482H434.574ZM425.018 202.309V210.292H432.41V202.309H425.018ZM442.162 198.318V216.278H439.97V198.318H442.162ZM442.949 220.607V222.433H426.029V214.536H428.222V220.607H442.949ZM465.94 198.206V204.277H469.735V206.104H465.94V212.034H463.748V198.206H465.94ZM465.94 213.327V218.864H452.224V221.309H466.868V222.996H450.06V217.234H463.748V214.985H450.004V213.327H465.94ZM461.359 200.567V202.337H446.463V200.567H452.815V198.037H455.007V200.567H461.359ZM453.911 203.462C457.537 203.462 459.897 205.036 459.926 207.565C459.897 210.095 457.537 211.669 453.911 211.669C450.257 211.669 447.868 210.095 447.896 207.565C447.868 205.036 450.257 203.462 453.911 203.462ZM453.911 205.092C451.55 205.092 449.976 206.076 450.004 207.565C449.976 209.083 451.55 210.01 453.911 210.01C456.272 210.01 457.818 209.083 457.846 207.565C457.818 206.076 456.272 205.092 453.911 205.092ZM499.162 198.29V211.275H496.942V198.29H499.162ZM499.162 212.484V218.442H485.053V221.197H500.118V222.996H482.888V216.784H496.97V214.254H482.804V212.484H499.162ZM493.147 200.005V201.775H490.618V208.155C491.911 208.085 493.189 207.959 494.384 207.818L494.496 209.448C489.493 210.179 483.619 210.376 479.206 210.376L478.925 208.549L482.13 208.521V201.775H479.628V200.005H493.147ZM484.266 208.465C485.643 208.436 487.062 208.394 488.482 208.296V201.775H484.266V208.465ZM526.256 218.217V220.072H503.378V218.217H509.055V211.472C506.919 210.362 505.626 208.563 505.626 206.3C505.626 202.422 509.421 199.892 514.761 199.864C520.101 199.892 523.896 202.422 523.896 206.3C523.896 208.521 522.645 210.306 520.579 211.416V218.217H526.256ZM514.761 201.691C510.657 201.663 507.762 203.518 507.762 206.3C507.762 209.083 510.657 210.966 514.761 210.966C518.836 210.966 521.759 209.083 521.759 206.3C521.759 203.518 518.836 201.663 514.761 201.691ZM511.22 218.217H518.359V212.259C517.276 212.554 516.068 212.709 514.761 212.709C513.482 212.709 512.288 212.568 511.22 212.287V218.217ZM540.45 212.962V216.081H545.003V212.962H547.055V222.939H538.37V212.962H540.45ZM540.45 221.197H545.003V217.768H540.45V221.197ZM554.194 214.929C554.166 217.571 555.74 220.325 558.803 221.45L557.651 223.136C555.346 222.209 553.829 220.452 553.07 218.358C552.269 220.41 550.751 222.18 548.545 223.136L547.392 221.45C550.4 220.213 552.002 217.459 552.002 214.929V212.793H554.194V214.929ZM542.361 199.414C545.706 199.414 548.264 201.312 548.741 204.192H553.969V198.29H556.19V211.528H553.969V206.019H548.77C548.32 208.971 545.748 210.91 542.361 210.91C538.567 210.91 535.869 208.577 535.869 205.148C535.869 201.747 538.567 199.414 542.361 199.414ZM542.361 201.269C539.804 201.269 537.977 202.871 537.977 205.148C537.977 207.453 539.804 209.083 542.361 209.083C544.891 209.083 546.69 207.453 546.69 205.148C546.69 202.871 544.891 201.269 542.361 201.269ZM580.951 198.29V223.333H578.731V198.29H580.951ZM567.657 200.229C571.367 200.258 574.037 203.63 574.037 208.942C574.037 214.254 571.367 217.627 567.657 217.627C563.919 217.627 561.277 214.254 561.277 208.942C561.277 203.63 563.919 200.258 567.657 200.229ZM567.657 202.197C565.156 202.225 563.413 204.867 563.413 208.942C563.413 213.018 565.156 215.66 567.657 215.66C570.158 215.66 571.901 213.018 571.901 208.942C571.901 204.867 570.158 202.225 567.657 202.197ZM611.784 198.29V208.127H615.972V210.039H611.784V223.277H609.592V198.29H611.784ZM595.679 200.426V207.031H602.987V200.426H605.179V217.29H593.487V200.426H595.679ZM595.679 215.435H602.987V208.802H595.679V215.435ZM640.199 218.33V220.185H617.321V218.33H627.608V213.608H620.188V205.907H635.14V201.972H620.131V200.145H637.304V207.706H622.38V211.781H637.895V213.608H629.772V218.33H640.199ZM660.801 199.92C666.113 199.948 669.936 202.534 669.936 206.469C669.936 210.193 666.619 212.666 661.869 212.962V218.217H672.297V220.072H649.418V218.217H659.705V212.962C654.969 212.652 651.667 210.179 651.667 206.469C651.667 202.534 655.489 199.948 660.801 199.92ZM660.801 201.747C656.754 201.747 653.803 203.658 653.803 206.469C653.803 209.364 656.754 211.219 660.801 211.247C664.849 211.219 667.8 209.364 667.8 206.469C667.8 203.658 664.849 201.747 660.801 201.747ZM694.894 198.29V223.333H692.674V198.29H694.894ZM687.811 200.679V202.534H678.143V215.21C683.005 215.21 686.209 215.056 689.947 214.395L690.172 216.25C686.294 216.953 683.005 217.093 677.946 217.121H675.922V200.679H687.811ZM710.549 199.92C715.861 199.948 719.684 202.534 719.684 206.469C719.684 210.193 716.367 212.666 711.617 212.962V218.217H722.045V220.072H699.166V218.217H709.453V212.962C704.717 212.652 701.415 210.179 701.415 206.469C701.415 202.534 705.237 199.948 710.549 199.92ZM710.549 201.747C706.502 201.747 703.551 203.658 703.551 206.469C703.551 209.364 706.502 211.219 710.549 211.247C714.597 211.219 717.548 209.364 717.548 206.469C717.548 203.658 714.597 201.747 710.549 201.747ZM752.737 198.29V223.277H750.601V210.292H747.2V222.012H745.092V198.824H747.2V208.408H750.601V198.29H752.737ZM738.656 205.12C738.656 209.701 740.539 213.72 744.108 215.547L742.787 217.262C740.258 215.885 738.529 213.411 737.644 210.348C736.787 213.833 735.03 216.559 732.388 218.105L731.011 216.419C734.608 214.451 736.52 210.179 736.52 205.12V203.124H731.601V201.269H743.293V203.124H738.656V205.12ZM763.586 203.265C763.586 206.019 765.525 208.83 768.729 210.039L767.577 211.725C765.174 210.797 763.445 209.013 762.546 206.863C761.619 209.252 759.834 211.374 757.374 212.428L756.166 210.713C759.454 209.28 761.478 206.047 761.478 203.265V199.864H763.586V203.265ZM777.358 198.318V213.749H775.25V206.863H771.934V212.962H769.854V198.796H771.934V205.036H775.25V198.318H777.358ZM769.095 214.311C774.266 214.311 777.499 215.941 777.499 218.78C777.499 221.59 774.266 223.22 769.095 223.22C763.895 223.22 760.691 221.59 760.719 218.78C760.691 215.941 763.895 214.311 769.095 214.311ZM769.095 215.997C765.272 215.997 762.883 217.037 762.911 218.78C762.883 220.494 765.272 221.506 769.095 221.506C772.889 221.506 775.278 220.494 775.306 218.78C775.278 217.037 772.889 215.997 769.095 215.997Z" fill="black"/>
</svg>
