<svg width="25" height="22" viewBox="0 0 25 22" fill="none" xmlns="http://www.w3.org/2000/svg">
<path d="M3.30686 12.111L11.9846 20.2628C12.2834 20.5436 12.4329 20.6839 12.6091 20.7185C12.6885 20.7341 12.7702 20.7341 12.8496 20.7185C13.0258 20.6839 13.1752 20.5436 13.4741 20.2628L22.1518 12.111C24.5933 9.81743 24.8898 6.04313 22.8364 3.39645L22.4503 2.89879C19.9937 -0.267398 15.0628 0.263598 13.3367 3.8802C13.0929 4.39106 12.3657 4.39106 12.1219 3.8802C10.3958 0.263598 5.46492 -0.2674 3.0084 2.89878L2.62228 3.39645C0.568822 6.04313 0.865316 9.81743 3.30686 12.111Z" stroke="#0096FF" stroke-width="1.24819"/>
</svg>
