<svg width="22" height="23" viewBox="0 0 22 23" fill="none" xmlns="http://www.w3.org/2000/svg">
<g clip-path="url(#clip0_737_4003)">
<g clip-path="url(#clip1_737_4003)">
<path d="M3.59141 12.1269C1.84453 10.2457 1.84453 7.19983 3.59141 5.31858C4.48724 4.33317 5.60703 3.88525 6.77162 3.88525C7.66746 3.88525 8.60807 4.19879 9.36953 4.78108C9.68307 5.04983 9.95183 5.36338 10.2206 5.67692L11.2956 7.11025L12.3706 5.67692C12.6393 5.31858 12.9081 5.00504 13.2216 4.78108C13.9383 4.154 14.8341 3.88525 15.7748 3.88525C16.8945 3.88525 18.0591 4.33317 18.9101 5.31858C20.657 7.19983 20.657 10.2457 18.9101 12.1269L11.8779 19.2936C11.5643 19.652 10.982 19.652 10.6685 19.2936L3.59141 12.1269Z" stroke="#FCFCFC" stroke-width="2.6875" stroke-miterlimit="10" stroke-linecap="round" stroke-linejoin="round"/>
</g>
</g>
<defs>
<clipPath id="clip0_737_4003">
<rect width="21.5" height="21.5" fill="white" transform="translate(0.5 0.75)"/>
</clipPath>
<clipPath id="clip1_737_4003">
<rect width="21.5" height="21.5" fill="white" transform="translate(0.5 0.75)"/>
</clipPath>
</defs>
</svg>