<svg width="17" height="17" viewBox="0 0 17 17" fill="none" xmlns="http://www.w3.org/2000/svg">
<g clip-path="url(#clip0_737_3994)">
<path d="M11.7094 8.38191L11.8001 8.48333L11.7094 8.58475C11.6998 8.5955 11.6874 8.60661 11.6715 8.61723L11.6714 8.61719L11.6656 8.62118L2.8323 14.6878L2.82119 14.6955L2.81051 14.7037C2.78091 14.7265 2.75744 14.7322 2.74004 14.7333C2.72023 14.7345 2.69598 14.7301 2.67056 14.7167C2.61856 14.6891 2.58203 14.6359 2.58203 14.5667V2.43333C2.58203 2.36413 2.61856 2.31093 2.67056 2.28334C2.69598 2.26985 2.72023 2.26551 2.74004 2.26674C2.75744 2.26783 2.78091 2.27354 2.81051 2.29631L2.8217 2.30492L2.83336 2.31288L11.6667 8.34622L11.6667 8.34624L11.6715 8.34944C11.6874 8.36006 11.6998 8.37117 11.7094 8.38191ZM12.582 8.04853V7.60937V2.16667C12.582 2.07614 12.6582 2 12.7487 2H14.7487C14.8392 2 14.9154 2.07614 14.9154 2.16667V14.8333C14.9154 14.9239 14.8392 15 14.7487 15H12.7487C12.6582 15 12.582 14.9239 12.582 14.8333V9.35731V8.91813V8.04853Z" fill="#FCFCFC" stroke="#FCFCFC"/>
</g>
<defs>
<clipPath id="clip0_737_3994">
<rect width="16" height="16" fill="white" transform="translate(0.75 0.5)"/>
</clipPath>
</defs>
</svg>
