<svg width="17" height="17" viewBox="0 0 17 17" fill="none" xmlns="http://www.w3.org/2000/svg">
<g clip-path="url(#clip0_737_3990)">
<path d="M4.91536 9.35662V14.8333C4.91536 14.9239 4.83922 15 4.7487 15H2.7487C2.65817 15 2.58203 14.9239 2.58203 14.8333V2.16667C2.58203 2.07614 2.65817 2 2.7487 2H4.7487C4.83922 2 4.91536 2.07614 4.91536 2.16667V7.61005V8.04853V8.91813V9.35662ZM5.78788 8.58462L5.6972 8.48333L5.78789 8.38204C5.79765 8.37114 5.81007 8.36001 5.82595 8.34943L5.82596 8.34945L5.8307 8.34622L14.664 2.31288L14.6757 2.30492L14.6869 2.29631C14.7165 2.27354 14.74 2.26783 14.7574 2.26674C14.7772 2.26551 14.8014 2.26985 14.8268 2.28334C14.8788 2.31093 14.9154 2.36413 14.9154 2.43333V14.5667C14.9154 14.6359 14.8788 14.6891 14.8268 14.7167C14.8014 14.7301 14.7772 14.7345 14.7574 14.7333C14.74 14.7322 14.7165 14.7265 14.6869 14.7037L14.6762 14.6955L14.6651 14.6878L5.83176 8.62118L5.83179 8.62114L5.82595 8.61724C5.81007 8.60666 5.79765 8.59553 5.78788 8.58462Z" fill="#FCFCFC" stroke="#FCFCFC"/>
</g>
<defs>
<clipPath id="clip0_737_3990">
<rect width="16" height="16" fill="white" transform="translate(0.75 0.5)"/>
</clipPath>
</defs>
</svg>
