<svg width="17" height="17" viewBox="0 0 17 17" fill="none" xmlns="http://www.w3.org/2000/svg">
<g clip-path="url(#clip0_737_3996)">
<g clip-path="url(#clip1_737_3996)">
<path fill-rule="evenodd" clip-rule="evenodd" d="M11.6106 1.36189C11.871 1.10154 12.2931 1.10154 12.5534 1.36189L14.5534 3.36189C14.8138 3.62224 14.8138 4.04435 14.5534 4.3047L12.5534 6.3047C12.2931 6.56505 11.871 6.56505 11.6106 6.3047C11.3503 6.04435 11.3503 5.62224 11.6106 5.36189L12.4726 4.49996H6.41536C4.21688 4.49996 2.41536 6.30148 2.41536 8.49996C2.41536 8.86816 2.11688 9.16663 1.7487 9.16663C1.38051 9.16663 1.08203 8.86816 1.08203 8.49996C1.08203 5.56511 3.48051 3.16663 6.41536 3.16663H12.4726L11.6106 2.3047C11.3503 2.04435 11.3503 1.62224 11.6106 1.36189ZM16.4154 8.49996C16.4154 8.13176 16.1169 7.83329 15.7487 7.83329C15.3805 7.83329 15.082 8.13176 15.082 8.49996C15.082 10.6984 13.2805 12.5 11.082 12.5H5.02484L5.88677 11.638C6.14712 11.3777 6.14712 10.9556 5.88677 10.6952C5.62642 10.4349 5.20431 10.4349 4.94396 10.6952L2.94396 12.6952C2.68361 12.9556 2.68361 13.3777 2.94396 13.638L4.94396 15.638C5.20431 15.8984 5.62642 15.8984 5.88677 15.638C6.14712 15.3777 6.14712 14.9556 5.88677 14.6952L5.02484 13.8333H11.082C14.0169 13.8333 16.4154 11.4348 16.4154 8.49996Z" fill="#9898A6"/>
</g>
</g>
<defs>
<clipPath id="clip0_737_3996">
<rect width="16" height="16" fill="white" transform="translate(0.75 0.5)"/>
</clipPath>
<clipPath id="clip1_737_3996">
<rect width="16" height="16" fill="white" transform="translate(0.75 0.5)"/>
</clipPath>
</defs>
</svg>
