<svg width="21" height="21" viewBox="0 0 21 21" fill="none" xmlns="http://www.w3.org/2000/svg">
<g clip-path="url(#clip0_737_3988)" filter="url(#filter0_d_737_3988)">
<path d="M15.5062 4.35582L15.5171 4.36671L15.5252 4.37482L15.5503 4.39999L15.5836 4.43329L15.6002 4.44989L15.65 4.49981L15.5062 4.35582ZM15.5062 4.35582L15.565 4.33503L15.5062 4.35582ZM15.5056 4.35515L15.5661 4.33398L15.6432 4.30698L15.65 4.3046L15.663 4.30004L15.5056 4.35515ZM15.5056 4.35515L15.4669 4.31644L15.4506 4.30004L15.4301 4.27952L15.4287 4.28085C15.4255 4.28406 15.4184 4.29107 15.4098 4.30004C15.4016 4.30857 15.392 4.31888 15.383 4.32938C15.3748 4.33885 15.3646 4.35131 15.3534 4.36671C15.3424 4.38181 15.3306 4.39974 15.3189 4.42046M15.5056 4.35515L15.3189 4.42046M15.3189 4.42046L15.29 4.43059C15.2878 4.41815 15.2863 4.40676 15.2853 4.39666C15.2841 4.38472 15.2836 4.37342 15.2834 4.36671C15.2833 4.36299 15.2833 4.36067 15.2833 4.36044C15.2833 4.36021 15.2833 4.36207 15.2833 4.36671V4.43293L15.2755 4.43566C15.2604 4.39251 15.2546 4.35525 15.2521 4.33128C15.2515 4.32541 15.2511 4.32034 15.2508 4.31617C15.2503 4.30902 15.2501 4.30329 15.2501 4.30004C15.25 4.2987 15.25 4.29778 15.25 4.29735L15.25 4.29646C15.25 4.29646 15.25 4.29735 15.25 4.30004V4.33337V4.40496C15.243 4.38746 15.237 4.36951 15.2321 4.35123C15.222 4.31305 15.2167 4.27342 15.2167 4.23337V4.33974C15.2009 4.30067 15.1935 4.26683 15.1896 4.24369C15.1869 4.22769 15.1854 4.21327 15.1845 4.20088C15.1841 4.19461 15.1838 4.18863 15.1836 4.18298L15.1834 4.17466L15.1833 4.17064L15.1833 4.16866L15.1833 4.16767L15.1833 4.1674L15.3189 4.42046ZM13.8036 5.52026L14.6571 4.66671H13.45H11.55C10.7172 4.66671 9.88449 5.11728 9.45592 5.8405L6.02886 11.3305C5.48124 12.1633 4.60152 12.6667 3.61667 12.6667H2.41667C2.32614 12.6667 2.25 12.5906 2.25 12.5C2.25 12.4095 2.32614 12.3334 2.41667 12.3334H3.61667C4.47936 12.3334 5.27886 11.9191 5.74198 11.1629L9.17113 5.66964C9.71874 4.83676 10.5985 4.33337 11.5833 4.33337H13.4833H14.6904L13.8369 3.47982L12.9702 2.61315L12.6167 2.96671L12.9702 2.61315C12.9277 2.5706 12.9167 2.52993 12.9167 2.50004C12.9167 2.47016 12.9277 2.42949 12.9702 2.38693L12.6167 2.03337L12.9702 2.38693C13.0128 2.34437 13.0534 2.33337 13.0833 2.33337C13.1132 2.33337 13.1539 2.34437 13.1964 2.38693L15.1964 4.38693L15.2167 4.40715V4.44074L15.25 4.47401V4.50715L15.2668 4.52393C15.262 4.53433 15.2573 4.54526 15.2529 4.55672L15.1964 4.61315L13.1964 6.61315C13.1539 6.65571 13.1132 6.66671 13.0833 6.66671C13.0609 6.66671 13.0089 6.66016 12.9211 6.59579C12.8915 6.55965 12.8833 6.52583 12.8833 6.50004C12.8833 6.47016 12.8943 6.42949 12.9369 6.38693L13.8036 5.52026ZM15.2761 4.43723L15.2833 4.43467L15.2818 4.45247C15.2798 4.44752 15.2779 4.44244 15.2761 4.43723ZM15.2903 4.4322L15.3178 4.42247C15.3108 4.43518 15.3038 4.44892 15.2972 4.46369C15.2944 4.45263 15.2921 4.44209 15.2903 4.4322ZM5.62077 5.65721C5.14665 5.01555 4.40826 4.66671 3.61667 4.66671H2.41667C2.34198 4.66671 2.25 4.60668 2.25 4.46671C2.25 4.37619 2.32614 4.30005 2.41667 4.30005H3.61667C4.47424 4.30005 5.26614 4.6812 5.81273 5.35327L5.62077 5.65721ZM15.1833 12.4405V12.6263L13.1964 14.6132C13.1539 14.6557 13.1132 14.6667 13.0833 14.6667C13.0609 14.6667 13.0089 14.6602 12.9211 14.5958C12.8915 14.5597 12.8833 14.5258 12.8833 14.5C12.8833 14.4702 12.8943 14.4295 12.9369 14.3869L13.8036 13.5203L14.6571 12.6667H13.45H11.55C10.6946 12.6667 9.90461 12.2875 9.35817 11.6187L9.5699 11.2968C10.0436 11.9466 10.7865 12.3 11.5833 12.3H13.4833H14.6904L13.8369 11.4465L12.9702 10.5798C12.9277 10.5373 12.9167 10.4966 12.9167 10.4667C12.9167 10.4368 12.9277 10.3962 12.9702 10.3536C13.0128 10.311 13.0534 10.3 13.0833 10.3C13.1132 10.3 13.1539 10.311 13.1964 10.3536L15.1833 12.3405V12.4405Z" fill="#FCFCFC" stroke="#FCFCFC"/>
</g>
<defs>
<filter id="filter0_d_737_3988" x="-3.25" y="0.5" width="24" height="24" filterUnits="userSpaceOnUse" color-interpolation-filters="sRGB">
<feFlood flood-opacity="0" result="BackgroundImageFix"/>
<feColorMatrix in="SourceAlpha" type="matrix" values="0 0 0 0 0 0 0 0 0 0 0 0 0 0 0 0 0 0 127 0" result="hardAlpha"/>
<feOffset dy="4"/>
<feGaussianBlur stdDeviation="2"/>
<feComposite in2="hardAlpha" operator="out"/>
<feColorMatrix type="matrix" values="0 0 0 0 0 0 0 0 0 0 0 0 0 0 0 0 0 0 0.25 0"/>
<feBlend mode="normal" in2="BackgroundImageFix" result="effect1_dropShadow_737_3988"/>
<feBlend mode="normal" in="SourceGraphic" in2="effect1_dropShadow_737_3988" result="shape"/>
</filter>
<clipPath id="clip0_737_3988">
<rect width="16" height="16" fill="white" transform="translate(0.75 0.5)"/>
</clipPath>
</defs>
</svg>
