<svg width="121" height="34" viewBox="0 0 121 34" fill="none" xmlns="http://www.w3.org/2000/svg">
<rect x="0.55184" y="0.55184" width="119.896" height="32.5558" rx="16.2779" fill="white" stroke="black" stroke-width="1.10368"/>
<path d="M61.7107 11.8185H65.465V13.55H61.7107V11.8185ZM58.28 9.13222C60.5294 9.13222 62.2285 10.6372 62.2285 12.7085C62.2285 14.7961 60.5294 16.2849 58.28 16.2849C56.0145 16.2849 54.3153 14.7961 54.3153 12.7085C54.3153 10.6372 56.0145 9.13222 58.28 9.13222ZM58.28 10.9285C57.1796 10.9285 56.3705 11.592 56.3705 12.7085C56.3705 13.8251 57.1796 14.5048 58.28 14.5048C59.3804 14.5048 60.1734 13.8251 60.1734 12.7085C60.1734 11.592 59.3804 10.9285 58.28 10.9285ZM64.5264 8.51729H66.6787V16.5762H64.5264V8.51729ZM56.7265 17.2235H58.8626V18.6475H64.5426V17.2235H66.6787V23.3404H56.7265V17.2235ZM58.8626 20.2981V21.6251H64.5426V20.2981H58.8626ZM69.0401 20.1039H82.601V21.8516H69.0401V20.1039ZM74.7201 17.272H76.8724V20.816H74.7201V17.272ZM70.5612 9.48824H81.0798V14.4724H72.7297V16.9969H70.5936V12.7895H78.9438V11.1874H70.5612V9.48824ZM70.5936 16.1392H81.4197V17.8708H70.5936V16.1392ZM85.4964 15.4272H96.0312V17.1425H85.4964V15.4272ZM83.9267 19.9421H97.4876V21.706H83.9267V19.9421ZM85.4964 9.74716H95.9179V11.4949H87.6325V16.1392H85.4964V9.74716Z" fill="black"/>
<rect width="22.8045" height="22.6554" transform="translate(17.0547 5.50342)" fill="white"/>
<path d="M21.8125 18.7183L24.8919 21.0127C25.2957 21.3136 25.8645 21.2446 26.1846 20.8559L34.1641 11.167" stroke="black" stroke-width="1.88795" stroke-linecap="round"/>
</svg>
