<svg width="129" height="42" viewBox="0 0 129 42" fill="none" xmlns="http://www.w3.org/2000/svg">
<g filter="url(#filter0_d_1206_6789)">
<rect x="4.55184" y="0.55184" width="119.896" height="32.5558" rx="16.2779" fill="white" stroke="black" stroke-width="1.10368"/>
<path d="M65.7107 11.8185H69.465V13.55H65.7107V11.8185ZM62.28 9.13222C64.5294 9.13222 66.2285 10.6372 66.2285 12.7085C66.2285 14.7961 64.5294 16.2849 62.28 16.2849C60.0145 16.2849 58.3153 14.7961 58.3153 12.7085C58.3153 10.6372 60.0145 9.13222 62.28 9.13222ZM62.28 10.9285C61.1796 10.9285 60.3705 11.592 60.3705 12.7085C60.3705 13.8251 61.1796 14.5048 62.28 14.5048C63.3804 14.5048 64.1734 13.8251 64.1734 12.7085C64.1734 11.592 63.3804 10.9285 62.28 10.9285ZM68.5264 8.51729H70.6787V16.5762H68.5264V8.51729ZM60.7265 17.2235H62.8626V18.6475H68.5426V17.2235H70.6787V23.3404H60.7265V17.2235ZM62.8626 20.2981V21.6251H68.5426V20.2981H62.8626ZM73.0401 20.1039H86.601V21.8516H73.0401V20.1039ZM78.7201 17.272H80.8724V20.816H78.7201V17.272ZM74.5612 9.48824H85.0798V14.4724H76.7297V16.9969H74.5936V12.7895H82.9438V11.1874H74.5612V9.48824ZM74.5936 16.1392H85.4197V17.8708H74.5936V16.1392ZM89.4964 15.4272H100.031V17.1425H89.4964V15.4272ZM87.9267 19.9421H101.488V21.706H87.9267V19.9421ZM89.4964 9.74716H99.9179V11.4949H91.6325V16.1392H89.4964V9.74716Z" fill="black"/>
<rect width="22.8045" height="22.6554" transform="translate(21.0547 5.50342)" fill="white"/>
<path d="M25.8125 18.7183L28.8919 21.0127C29.2957 21.3136 29.8645 21.2446 30.1846 20.8559L38.1641 11.167" stroke="black" stroke-width="1.88795" stroke-linecap="round"/>
</g>
<defs>
<filter id="filter0_d_1206_6789" x="0" y="0" width="129" height="41.6597" filterUnits="userSpaceOnUse" color-interpolation-filters="sRGB">
<feFlood flood-opacity="0" result="BackgroundImageFix"/>
<feColorMatrix in="SourceAlpha" type="matrix" values="0 0 0 0 0 0 0 0 0 0 0 0 0 0 0 0 0 0 127 0" result="hardAlpha"/>
<feOffset dy="4"/>
<feGaussianBlur stdDeviation="2"/>
<feComposite in2="hardAlpha" operator="out"/>
<feColorMatrix type="matrix" values="0 0 0 0 0 0 0 0 0 0 0 0 0 0 0 0 0 0 0.25 0"/>
<feBlend mode="normal" in2="BackgroundImageFix" result="effect1_dropShadow_1206_6789"/>
<feBlend mode="normal" in="SourceGraphic" in2="effect1_dropShadow_1206_6789" result="shape"/>
</filter>
</defs>
</svg>
