<svg width="103" height="57" viewBox="0 0 103 57" fill="none" xmlns="http://www.w3.org/2000/svg">
<path d="M9.76083 47.6611H3.67557L12.9477 20.802H20.2658L29.5248 47.6611H23.4396L16.7117 26.9397H16.5018L9.76083 47.6611ZM9.38051 37.1037H23.7543V41.5365H9.38051V37.1037ZM45.5708 39.0841V27.5168H51.1577V47.6611H45.7938V44.0021H45.5839C45.1293 45.1824 44.373 46.1311 43.3151 46.848C42.2659 47.565 40.985 47.9234 39.4724 47.9234C38.126 47.9234 36.9413 47.6174 35.9183 47.0054C34.8954 46.3934 34.0953 45.5234 33.5183 44.3955C32.95 43.2677 32.6615 41.9168 32.6527 40.3431V27.5168H38.2396V39.3463C38.2484 40.5354 38.5675 41.4753 39.197 42.166C39.8265 42.8567 40.6702 43.2021 41.7282 43.2021C42.4014 43.2021 43.0309 43.0491 43.6167 42.7431C44.2025 42.4283 44.6746 41.9649 45.0331 41.3529C45.4003 40.7409 45.5795 39.9846 45.5708 39.0841Z" fill="#0096FF"/>
<path d="M64.6143 44.8652L55.392 47.2326L48.7136 21.217L58.0122 18.83C60.629 18.1582 63.0153 18.1008 65.1712 18.6576C67.325 19.206 69.1589 20.3194 70.6729 21.9979C72.1955 23.6741 73.3035 25.863 73.997 28.5645C74.6926 31.2745 74.7781 33.7349 74.2534 35.9457C73.7372 38.1543 72.66 40.0241 71.022 41.5548C69.3924 43.0834 67.2565 44.1869 64.6143 44.8652ZM59.6826 41.1078L63.1759 40.2111C64.8018 39.7937 66.0956 39.1546 67.0572 38.294C68.025 37.4227 68.6319 36.3056 68.8778 34.9426C69.13 33.569 69.0071 31.9125 68.5093 29.9732C68.0158 28.0508 67.3288 26.5527 66.4484 25.4789C65.5764 24.4029 64.5118 23.7194 63.2546 23.4283C61.9974 23.1372 60.5558 23.2004 58.9298 23.6178L55.4238 24.5178L59.6826 41.1078ZM86.974 39.518C85.7291 39.8375 84.5642 39.9064 83.4795 39.7245C82.3925 39.5341 81.4556 39.0841 80.6686 38.3744C79.888 37.6541 79.3324 36.6503 79.002 35.3631C78.7237 34.2791 78.689 33.3176 78.8979 32.4787C79.1068 31.6398 79.4966 30.9078 80.0673 30.2829C80.6381 29.658 81.3302 29.1192 82.1438 28.6666C82.9658 28.2119 83.8476 27.814 84.7891 27.4731C85.8935 27.0632 86.7798 26.7183 87.4482 26.4384C88.1143 26.1501 88.5769 25.8598 88.8359 25.5677C89.0949 25.2755 89.1711 24.922 89.0646 24.507L89.0451 24.4308C88.8385 23.6263 88.4247 23.069 87.8035 22.7591C87.1908 22.447 86.4229 22.4094 85.4999 22.6464C84.526 22.8964 83.8065 23.3112 83.3415 23.891C82.8744 24.4622 82.6302 25.0936 82.6091 25.785L77.4998 26.6633C77.4495 25.4125 77.6861 24.2595 78.2096 23.2044C78.731 22.1409 79.5204 21.2251 80.578 20.4571C81.6418 19.6785 82.9529 19.0892 84.5111 18.6892C85.5951 18.411 86.6651 18.2717 87.7212 18.2714C88.7857 18.2689 89.7717 18.4356 90.6793 18.7712C91.5954 19.1048 92.3855 19.6331 93.0495 20.3563C93.7114 21.071 94.1913 22.0084 94.4891 23.1686L97.8674 36.3289L92.7354 37.6463L92.0409 34.9406L91.8884 34.9797C91.7316 35.6699 91.4505 36.3152 91.045 36.9158C90.6373 37.5079 90.0988 38.0298 89.4294 38.4814C88.7579 38.9246 87.9394 39.2701 86.974 39.518ZM87.565 35.3855C88.3611 35.1811 89.0237 34.844 89.553 34.3742C90.0802 33.8958 90.4478 33.3411 90.6558 32.71C90.8639 32.0788 90.8799 31.4203 90.7038 30.7343L90.1723 28.6638C90.0312 28.8173 89.8244 28.9787 89.5519 29.148C89.2857 29.3066 88.9803 29.4707 88.6357 29.6404C88.289 29.8017 87.9411 29.9587 87.5922 30.1114C87.2411 30.2557 86.9228 30.3871 86.6372 30.5055C86.026 30.7617 85.5094 31.0523 85.0873 31.3773C84.6652 31.7023 84.3675 32.0721 84.1941 32.4867C84.0185 32.8928 83.996 33.3499 84.1264 33.8581C84.3155 34.5948 84.7269 35.0895 85.3604 35.3421C86.0002 35.5841 86.7351 35.5985 87.565 35.3855Z" fill="#0096FF"/>
<rect x="22.2051" y="22.7559" width="5.44048" height="8.39634" rx="2.72024" stroke="#222222" stroke-width="3" stroke-linejoin="round"/>
<rect x="5.88477" y="22.7559" width="5.44047" height="8.39634" rx="2.72024" stroke="#222222" stroke-width="3" stroke-linejoin="round"/>
<path d="M5.88477 23.9553V27.5538" stroke="#222222" stroke-width="1.19948" stroke-linecap="round" stroke-linejoin="round"/>
<path d="M27.6465 23.9553V27.5538" stroke="#222222" stroke-width="1.19948" stroke-linecap="round" stroke-linejoin="round"/>
<path d="M27.6467 23.9553C27.6467 21.0922 26.5003 18.3464 24.4597 16.3219C22.4191 14.2974 19.6515 13.16 16.7657 13.16C13.8799 13.16 11.1123 14.2974 9.07172 16.3219C7.03115 18.3464 5.88477 21.0922 5.88477 23.9553" stroke="#222222" stroke-width="3" stroke-linecap="round" stroke-linejoin="round"/>
</svg>
